<svg xmlns="http://www.w3.org/2000/svg" viewBox="0 0 512 512">
    <path d="M503.5 494.9h-34.9c0.4-2.8 0.7-5.7 0.7-8.5 0-23.8-14-44.3-34.1-53.9V145.1c0-4.7-3.8-8.5-8.5-8.5H238.9c-4.7 0-8.5 3.8-8.5 8.5v265.8c-4.9-5.1-10.6-9.4-17.1-12.5V145.1c0-14.1 11.5-25.6 25.6-25.6h59.7V8.5c0-4.7-3.8-8.5-8.5-8.5h-230.4C55 0 51.2 3.8 51.2 8.5v486.4H8.5c-4.7 0-8.5 3.8-8.5 8.5S3.8 512 8.5 512h51.2 25.6H290.3h0.2H457.8h45.6c4.7 0 8.5-3.8 8.5-8.5S508.2 494.9 503.5 494.9zM238.9 42.7c0-4.7 3.8-8.5 8.5-8.5 4.7 0 8.5 3.8 8.5 8.5v17.1c0 4.7-3.8 8.5-8.5 8.5 -4.7 0-8.5-3.8-8.5-8.5V42.7zM375.5 179.2c0-4.7 3.8-8.5 8.5-8.5 4.7 0 8.5 3.8 8.5 8.5v17.1c0 4.7-3.8 8.5-8.5 8.5 -4.7 0-8.5-3.8-8.5-8.5V179.2zM375.5 230.4c0-4.7 3.8-8.5 8.5-8.5 4.7 0 8.5 3.8 8.5 8.5v17.1c0 4.7-3.8 8.5-8.5 8.5 -4.7 0-8.5-3.8-8.5-8.5V230.4zM375.5 281.6c0-4.7 3.8-8.5 8.5-8.5 4.7 0 8.5 3.8 8.5 8.5v17.1c0 4.7-3.8 8.5-8.5 8.5 -4.7 0-8.5-3.8-8.5-8.5V281.6zM375.5 332.8c0-4.7 3.8-8.5 8.5-8.5 4.7 0 8.5 3.8 8.5 8.5v17.1c0 4.7-3.8 8.5-8.5 8.5 -4.7 0-8.5-3.8-8.5-8.5V332.8zM375.5 384c0-4.7 3.8-8.5 8.5-8.5 4.7 0 8.5 3.8 8.5 8.5v17.1c0 4.7-3.8 8.5-8.5 8.5 -4.7 0-8.5-3.8-8.5-8.5V384zM324.3 179.2c0-4.7 3.8-8.5 8.5-8.5 4.7 0 8.5 3.8 8.5 8.5v17.1c0 4.7-3.8 8.5-8.5 8.5 -4.7 0-8.5-3.8-8.5-8.5V179.2zM324.3 230.4c0-4.7 3.8-8.5 8.5-8.5 4.7 0 8.5 3.8 8.5 8.5v17.1c0 4.7-3.8 8.5-8.5 8.5 -4.7 0-8.5-3.8-8.5-8.5V230.4zM324.3 281.6c0-4.7 3.8-8.5 8.5-8.5 4.7 0 8.5 3.8 8.5 8.5v17.1c0 4.7-3.8 8.5-8.5 8.5 -4.7 0-8.5-3.8-8.5-8.5V281.6zM324.3 332.8c0-4.7 3.8-8.5 8.5-8.5 4.7 0 8.5 3.8 8.5 8.5v17.1c0 4.7-3.8 8.5-8.5 8.5 -4.7 0-8.5-3.8-8.5-8.5V332.8zM324.3 384c0-4.7 3.8-8.5 8.5-8.5 4.7 0 8.5 3.8 8.5 8.5v17.1c0 4.7-3.8 8.5-8.5 8.5 -4.7 0-8.5-3.8-8.5-8.5V384zM273.1 179.2c0-4.7 3.8-8.5 8.5-8.5 4.7 0 8.5 3.8 8.5 8.5v17.1c0 4.7-3.8 8.5-8.5 8.5 -4.7 0-8.5-3.8-8.5-8.5V179.2zM273.1 230.4c0-4.7 3.8-8.5 8.5-8.5 4.7 0 8.5 3.8 8.5 8.5v17.1c0 4.7-3.8 8.5-8.5 8.5 -4.7 0-8.5-3.8-8.5-8.5V230.4zM273.1 281.6c0-4.7 3.8-8.5 8.5-8.5 4.7 0 8.5 3.8 8.5 8.5v17.1c0 4.7-3.8 8.5-8.5 8.5 -4.7 0-8.5-3.8-8.5-8.5V281.6zM273.1 332.8c0-4.7 3.8-8.5 8.5-8.5 4.7 0 8.5 3.8 8.5 8.5v17.1c0 4.7-3.8 8.5-8.5 8.5 -4.7 0-8.5-3.8-8.5-8.5V332.8zM273.1 384c0-4.7 3.8-8.5 8.5-8.5 4.7 0 8.5 3.8 8.5 8.5v17.1c0 4.7-3.8 8.5-8.5 8.5 -4.7 0-8.5-3.8-8.5-8.5V384zM187.7 42.7c0-4.7 3.8-8.5 8.5-8.5 4.7 0 8.5 3.8 8.5 8.5v17.1c0 4.7-3.8 8.5-8.5 8.5 -4.7 0-8.5-3.8-8.5-8.5V42.7zM187.7 93.9c0-4.7 3.8-8.5 8.5-8.5 4.7 0 8.5 3.8 8.5 8.5v17.1c0 4.7-3.8 8.5-8.5 8.5 -4.7 0-8.5-3.8-8.5-8.5V93.9zM187.7 145.1c0-4.7 3.8-8.5 8.5-8.5 4.7 0 8.5 3.8 8.5 8.5v17.1c0 4.7-3.8 8.5-8.5 8.5 -4.7 0-8.5-3.8-8.5-8.5V145.1zM187.7 196.3c0-4.7 3.8-8.5 8.5-8.5 4.7 0 8.5 3.8 8.5 8.5v17.1c0 4.7-3.8 8.5-8.5 8.5 -4.7 0-8.5-3.8-8.5-8.5V196.3zM187.7 247.5c0-4.7 3.8-8.5 8.5-8.5 4.7 0 8.5 3.8 8.5 8.5v17.1c0 4.7-3.8 8.5-8.5 8.5 -4.7 0-8.5-3.8-8.5-8.5V247.5zM187.7 298.7c0-4.7 3.8-8.5 8.5-8.5 4.7 0 8.5 3.8 8.5 8.5v17.1c0 4.7-3.8 8.5-8.5 8.5 -4.7 0-8.5-3.8-8.5-8.5V298.7zM187.7 349.9c0-4.7 3.8-8.5 8.5-8.5 4.7 0 8.5 3.8 8.5 8.5v17.1c0 4.7-3.8 8.5-8.5 8.5 -4.7 0-8.5-3.8-8.5-8.5V349.9zM136.5 42.7c0-4.7 3.8-8.5 8.5-8.5 4.7 0 8.5 3.8 8.5 8.5v17.1c0 4.7-3.8 8.5-8.5 8.5 -4.7 0-8.5-3.8-8.5-8.5V42.7zM136.5 93.9c0-4.7 3.8-8.5 8.5-8.5 4.7 0 8.5 3.8 8.5 8.5v17.1c0 4.7-3.8 8.5-8.5 8.5 -4.7 0-8.5-3.8-8.5-8.5V93.9zM136.5 145.1c0-4.7 3.8-8.5 8.5-8.5 4.7 0 8.5 3.8 8.5 8.5v17.1c0 4.7-3.8 8.5-8.5 8.5 -4.7 0-8.5-3.8-8.5-8.5V145.1zM136.5 196.3c0-4.7 3.8-8.5 8.5-8.5 4.7 0 8.5 3.8 8.5 8.5v17.1c0 4.7-3.8 8.5-8.5 8.5 -4.7 0-8.5-3.8-8.5-8.5V196.3zM136.5 247.5c0-4.7 3.8-8.5 8.5-8.5 4.7 0 8.5 3.8 8.5 8.5v17.1c0 4.7-3.8 8.5-8.5 8.5 -4.7 0-8.5-3.8-8.5-8.5V247.5zM136.5 298.7c0-4.7 3.8-8.5 8.5-8.5 4.7 0 8.5 3.8 8.5 8.5v17.1c0 4.7-3.8 8.5-8.5 8.5 -4.7 0-8.5-3.8-8.5-8.5V298.7zM136.5 349.9c0-4.7 3.8-8.5 8.5-8.5 4.7 0 8.5 3.8 8.5 8.5v17.1c0 4.7-3.8 8.5-8.5 8.5 -4.7 0-8.5-3.8-8.5-8.5V349.9zM136.5 401.1c0-4.7 3.8-8.5 8.5-8.5 4.7 0 8.5 3.8 8.5 8.5v2.3c-6.6 4.6-12.2 10.6-16.5 17.4 -0.3-0.8-0.5-1.7-0.5-2.6V401.1zM85.3 42.7c0-4.7 3.8-8.5 8.5-8.5 4.7 0 8.5 3.8 8.5 8.5v17.1c0 4.7-3.8 8.5-8.5 8.5 -4.7 0-8.5-3.8-8.5-8.5V42.7zM85.3 93.9c0-4.7 3.8-8.5 8.5-8.5 4.7 0 8.5 3.8 8.5 8.5v17.1c0 4.7-3.8 8.5-8.5 8.5 -4.7 0-8.5-3.8-8.5-8.5V93.9zM85.3 145.1c0-4.7 3.8-8.5 8.5-8.5 4.7 0 8.5 3.8 8.5 8.5v17.1c0 4.7-3.8 8.5-8.5 8.5 -4.7 0-8.5-3.8-8.5-8.5V145.1zM85.3 196.3c0-4.7 3.8-8.5 8.5-8.5 4.7 0 8.5 3.8 8.5 8.5v17.1c0 4.7-3.8 8.5-8.5 8.5 -4.7 0-8.5-3.8-8.5-8.5V196.3zM85.3 247.5c0-4.7 3.8-8.5 8.5-8.5 4.7 0 8.5 3.8 8.5 8.5v17.1c0 4.7-3.8 8.5-8.5 8.5 -4.7 0-8.5-3.8-8.5-8.5V247.5zM85.3 298.7c0-4.7 3.8-8.5 8.5-8.5 4.7 0 8.5 3.8 8.5 8.5v17.1c0 4.7-3.8 8.5-8.5 8.5 -4.7 0-8.5-3.8-8.5-8.5V298.7zM85.3 349.9c0-4.7 3.8-8.5 8.5-8.5 4.7 0 8.5 3.8 8.5 8.5v17.1c0 4.7-3.8 8.5-8.5 8.5 -4.7 0-8.5-3.8-8.5-8.5V349.9zM85.3 401.1c0-4.7 3.8-8.5 8.5-8.5 4.7 0 8.5 3.8 8.5 8.5v17.1c0 4.7-3.8 8.5-8.5 8.5 -4.7 0-8.5-3.8-8.5-8.5V401.1zM85.9 471.9c-0.3-0.8-0.5-1.7-0.5-2.6v-17.1c0-4.7 3.8-8.5 8.5-8.5 4.7 0 8.5 3.8 8.5 8.5v2.3C95.8 459.2 90.1 465.1 85.9 471.9zM274.3 466.9c0 0.1 0 0.2-0.1 0.2 -0.3 1.6-0.6 3.2-0.8 4.8 0 0.2-0.1 0.4-0.1 0.5 -0.2 1.8-0.3 3.6-0.3 5.4 0 2.9 0.3 5.7 0.8 8.6 0.1 0.4 0.2 0.7 0.3 1.1 0.5 2.5 1.1 4.9 2 7.3 0 0 0 0.1 0 0.1H94.7c0 0 0 0 0 0 0-0.2 0.1-0.3 0.1-0.4 0.5-2.5 1.3-4.8 2.2-7.1 0.3-0.8 0.8-1.6 1.2-2.3 0.8-1.6 1.5-3.1 2.5-4.6 0.5-0.8 1.2-1.6 1.8-2.4 1-1.3 1.9-2.5 3-3.7 0.7-0.8 1.5-1.5 2.2-2.2 1.1-1.1 2.3-2 3.6-3 0.8-0.6 1.7-1.2 2.6-1.8 1.3-0.9 2.8-1.6 4.2-2.3 0.9-0.4 1.8-0.9 2.7-1.3 1.6-0.6 3.4-1.1 5.1-1.6 0.8-0.2 1.7-0.5 2.5-0.7 2.6-0.5 5.3-0.8 8.1-0.8 4.7 0 8.5-3.8 8.5-8.5 0-23.5 19.1-42.7 42.7-42.7 2.5 0 4.9 0.3 7.2 0.7 1.6 0.3 3.2 0.8 4.7 1.2 0.6 0.2 1.3 0.3 1.9 0.5 2 0.7 4 1.6 5.9 2.6 0.1 0 0.1 0.1 0.2 0.1 2 1.1 3.9 2.3 5.7 3.7 8.6 6.6 14.9 16.2 16.5 27.5 0.5 3.4 3.1 6.2 6.5 7 3.4 0.8 6.9-0.5 9-3.4 0.1-0.2 0.3-0.4 0.4-0.6 0 0 0 0 0.1-0.1 1.6-2.2 3.4-4.1 5.4-5.8 0.1-0.1 0.2-0.1 0.3-0.2 1.9-1.6 4-3 6.1-4.1 0.3-0.1 0.5-0.2 0.8-0.3 2.1-1 4.3-1.9 6.6-2.4 0.2 0 0.4-0.1 0.6-0.1 2.4-0.6 4.9-0.9 7.5-0.9 2.1 0 4.2 0.3 6.2 0.6 0.5 0.1 0.9 0.2 1.4 0.3 2 0.5 3.9 1.1 5.8 1.9 0.2 0.1 0.4 0.2 0.7 0.3 1 0.5 1.9 1.1 2.9 1.6C282.2 447 276.6 456.3 274.3 466.9zM451.4 494.9H295.1c-1.2-2-2.3-4.1-3.1-6.2 0-0.1-0.1-0.3-0.1-0.4 -0.5-1.4-0.8-2.9-1.1-4.4 -0.1-0.3-0.1-0.6-0.2-1 -0.3-1.7-0.4-3.4-0.4-5.1 0-2 0.3-4 0.6-6 0.1-0.6 0.2-1.3 0.4-1.9 0.3-1.4 0.8-2.7 1.2-4 0.5-1.2 1-2.3 1.6-3.5 0.4-0.8 0.8-1.7 1.3-2.4 0.6-1 1.4-2.1 2.1-3 0.2-0.3 0.4-0.5 0.7-0.8 2.8-3.3 6.2-6.2 10.2-8.4 0 0 0 0 0 0 16.1-8.6 34.8-2.6 44.1 11 0.2 0.4 0.5 0.7 0.7 1.1 1.2 1.9 2.2 3.8 3 5.9 1.2 3.2 4.1 5.3 7.5 5.5 0.2 0 0.3 0 0.5 0 0.2 0 0.4-0.1 0.7-0.1 3-0.2 5.5-1.9 6.9-4.5 1.1-2.1 2.4-4.1 3.8-6 0.3-0.4 0.6-0.8 0.9-1.2 1.3-1.6 2.7-3.1 4.2-4.5 0.2-0.2 0.3-0.3 0.5-0.5 5.6-4.9 12.3-8.4 19.6-9.9 0.1 0 0.2 0 0.2 0 2.4-0.5 4.8-0.8 7.3-0.9 0 0 0.1 0 0.1 0 1.6 0 3.2 0.2 4.8 0.3 1.2 0.1 2.4 0.2 3.6 0.4 1.6 0.3 3.1 0.7 4.7 1.2 17.7 5.2 30.7 21.4 30.7 40.8C452.3 489.3 452 492.1 451.4 494.9z" />
</svg>
